<?xml version="1.0" encoding="utf-8"?>
<!-- Generator: Adobe Illustrator 19.2.1, SVG Export Plug-In . SVG Version: 6.00 Build 0)  -->
<svg version="1.1" id="Layer_1" xmlns="http://www.w3.org/2000/svg" xmlns:xlink="http://www.w3.org/1999/xlink" x="0px" y="0px"
	 viewBox="0 0 499.1 71.8" style="enable-background:new 0 0 499.1 71.8;" xml:space="preserve">
<style type="text/css">
	.st0{fill:#000000;}
	.st1{fill:#000000;}
	.st2{fill:#000000;}
</style>
<g>
	<g>
		<g>
			<path class="st0" d="M240.3,15.4l-15.7,0l4.8,4.8c-11.3,15.2-18.3,20.9-20.5,22.2c-2.3,1.3-3.9,2-6,2c-4.2,0-7.3-2.4-7.3-6l0-0.1
				c0-2.5,1.6-5.3,4.7-6.8l8.4,8.5c1.6-1.2,4-3.4,7.3-6.9l-6.1-6.1c6.5-2.9,10.8-6.7,10.8-13.6l0-0.1c0-7.3-5.9-13-14.7-13
				c-10,0.1-15.7,6.6-15.6,13.7l0,0.1c0,3.6,1.2,6.8,3.7,10.4c-6.5,3-10,7.7-10,14.3l0,0.1c0.1,9.2,7.6,14.9,17.5,14.9
				c5.2,0,9.5-1.8,13.3-4.5l0,0c0.6-0.4,1.3-1,1.8-1.4c10.8-9,17.9-20,18.8-21.5l4.7,4.7L240.3,15.4z M205.8,9.1
				c2.9,0,4.9,1.8,4.9,4.8l0,0.1c0,3.3-2.3,5.2-6.9,6.9c-2.2-2.4-3.1-4.1-3.1-6.4l0-0.1C200.8,11.3,202.8,9.1,205.8,9.1z"/>
			<g>
				<path class="st0" d="M225.7,42.6c-2.2,2.3-4.6,4.7-7.3,6.9c0,0,3.6,3.6,4.3,4.3h14.4L225.7,42.6z"/>
			</g>
		</g>
		<g>
			<path class="st1" d="M56.7,54.3h-8.9l-7.7-21.1c-0.8-2.2-1.8-4.7-2.3-7h-0.2c-0.5,2.4-1.5,4.9-2.2,7l-7.7,21.1h-8.6L0.9,3.4h11.6
				L22,32.7c0.8,2.3,1.3,4.4,1.9,6.8h0.2c0.5-2.3,1.3-4.5,2.1-6.7L33,12.6l-3.3-9.2h10.4L50,31.9c0.9,2.7,1.8,5,2.4,7.4h0.2
				c0.5-2.5,1.1-4.6,1.8-7.3l8.7-28.6h10.6L56.7,54.3z"/>
			<path class="st1" d="M94.1,27.1c-1.8-1.1-3.6-1.3-4.6-1.3c-2.1,0-4.1,0.8-6.7,2.8v25.3H72.5V17.7h8.7l1.1,3.8
				c3.3-2.9,6.1-4.6,10-4.6c1.8,0,3.9,0.5,5.5,1.7L94.1,27.1z"/>
			<path class="st1" d="M105.1,12.7c-3.5,0-6.3-2.7-6.3-6c0-3.4,2.8-6,6.3-6c3.6,0,6.3,2.6,6.3,6C111.4,9.9,108.7,12.7,105.1,12.7z
				 M99.9,53.9V17.7h10.4v36.2H99.9z"/>
			<path class="st1" d="M130.5,54.6c-6.7,0-9.3-3.8-9.3-8.7V25.3h-6.7v-7.7h6.7V9.2l10.3-3.1v11.5h11.3l-3,7.7h-8.3V42
				c0,2.7,1.1,4,3.4,4c2.2,0,4.5-1,5.9-1.8l2.7,6.4C139.4,53.6,134.1,54.6,130.5,54.6z"/>
			<path class="st1" d="M153.7,38.6c0.2,4.9,4.8,7.8,9.6,7.8c3.5,0,6.2-0.7,9.7-2.5l2.4,6.6c-4.5,3.1-9.5,4.1-13.8,4.1
				c-13,0-18.4-9.2-18.4-18.7c0-10.3,6.1-19.1,17-19.1c10,0,16.8,7.4,16.8,18.7c0,0.7,0,1.8,0,3.1H153.7z M160,24.4
				c-4.1,0-6.5,3.8-6.5,7.1h13.1C166.4,28.1,164.5,24.4,160,24.4z"/>
		</g>
	</g>
	<g>
		<path class="st2" d="M249.4,53.8V3.5h10.5v50.3H249.4z"/>
		<path class="st2" d="M312.9,53.8V32.5c0-3.8-0.6-6.9-5-6.9c-2.7,0-5.6,1.2-7.8,3c0,0.2,0,0.6,0,1v24.2h-10.3V32.7c0-3.8-0.6-7-5-7
			c-2.7,0-5.6,1.2-7.9,3v25.2h-10.3V17.7h8.7l1,3.8c3.7-2.8,7.8-4.7,12.1-4.7c4.6,0,7.9,1.9,9.6,5.2c4.3-3.5,9-5.2,12.8-5.2
			c6.4,0,12.4,3.1,12.4,12.9v24.1H312.9z"/>
		<path class="st2" d="M344.3,54.6c-1.5,0-3.2-0.2-4.8-0.8v18h-10.4V19.3c4.2-1.5,8.7-2.4,14.8-2.4c13.4,0,19.9,7.2,19.9,18.2
			C363.8,46.1,356,54.6,344.3,54.6z M343,25.3c-1.5,0-2.5,0.1-3.5,0.3v20.1c1.4,0.5,2.5,0.8,4.3,0.8c6.1,0,9.3-4.4,9.3-10.8
			C353.1,28.7,348.7,25.3,343,25.3z"/>
		<path class="st2" d="M389.9,27.1c-1.8-1.1-3.6-1.3-4.6-1.3c-2.1,0-4.1,0.8-6.6,2.8v25.2h-10.3V17.7h8.7l1.1,3.7
			c3.3-2.9,6.1-4.6,9.9-4.6c1.8,0,3.9,0.5,5.5,1.7L389.9,27.1z"/>
		<path class="st2" d="M425.4,49.2c-3.3,3.4-7.9,5.4-13.6,5.4c-5.3,0-9.7-1.6-12.8-4.5c-3.7-3.4-5.8-8.3-5.8-14
			c0-5.5,2-10.4,5.3-13.8c3.3-3.4,7.9-5.3,13.3-5.3c5.9,0,10.7,2,13.9,5.4c3.2,3.4,4.8,8,4.8,13.3C430.5,40.9,428.7,45.8,425.4,49.2
			z M411.6,24.9c-5.4,0-7.9,4.7-7.9,10.8c0,6.5,3.1,10.9,8.2,10.9c5.5,0,8-4.7,8-10.9C419.9,29.3,416.8,24.9,411.6,24.9z"/>
		<path class="st2" d="M451.6,54h-7.4L429,17.7h10.6l8.6,23.1h0.2l8.4-23.1h10L451.6,54z"/>
		<path class="st2" d="M475.8,38.6c0.2,4.9,4.8,7.8,9.6,7.8c3.5,0,6.2-0.7,9.7-2.5l2.4,6.6c-4.5,3.1-9.5,4.1-13.7,4.1
			c-13,0-18.3-9.2-18.3-18.6c0-10.2,6.1-19.1,16.9-19.1c9.9,0,16.8,7.4,16.8,18.6c0,0.7,0,1.8,0,3.1H475.8z M482,24.4
			c-4.1,0-6.5,3.8-6.5,7.1h13.1C488.4,28.1,486.4,24.4,482,24.4z"/>
	</g>
</g>
</svg>
